<?xml version="1.0" standalone="no"?>
<!DOCTYPE svg PUBLIC "-//W3C//DTD SVG 20010904//EN"
 "http://www.w3.org/TR/2001/REC-SVG-20010904/DTD/svg10.dtd">
<svg version="1.0" xmlns="http://www.w3.org/2000/svg"
 width="2732.000000pt" height="2732.000000pt" viewBox="0 0 2732.000000 2732.000000"
 preserveAspectRatio="xMidYMid meet">
<metadata>
Created by potrace 1.11, written by Peter Selinger 2001-2013
</metadata>
<g transform="translate(0.000000,2732.000000) scale(0.100000,-0.100000)"
fill="#000000" stroke="none">
<path d="M13718 22985 c-3 -3 -59 -8 -124 -10 -125 -6 -153 -8 -194 -19 -14
-3 -36 -8 -50 -10 -14 -3 -36 -8 -50 -11 -47 -10 -85 -17 -97 -18 -7 0 -13 -4
-13 -8 0 -4 -8 -8 -17 -8 -17 0 -55 -7 -60 -11 -2 -2 -7 -4 -13 -5 -5 -1 -12
-4 -15 -5 -3 -1 -14 -4 -25 -5 -11 -1 -22 -4 -25 -5 -3 -1 -9 -4 -15 -5 -5 -1
-12 -4 -15 -5 -3 -1 -9 -4 -15 -5 -5 -1 -11 -3 -12 -5 -2 -1 -11 -3 -20 -5 -9
-2 -39 -10 -65 -18 -88 -28 -107 -30 -263 -32 -138 -2 -195 -6 -280 -21 -14
-2 -41 -7 -60 -10 -131 -21 -398 -109 -513 -169 -16 -8 -35 -15 -43 -15 -8 0
-14 -4 -14 -10 0 -5 -9 -10 -20 -10 -11 0 -20 -4 -20 -10 0 -5 -9 -10 -20 -10
-11 0 -20 -4 -20 -9 0 -5 -11 -12 -25 -15 -14 -4 -25 -11 -25 -16 0 -6 -7 -10
-16 -10 -9 0 -28 -8 -42 -18 -15 -10 -40 -24 -57 -32 -16 -8 -78 -41 -136 -72
-59 -32 -113 -58 -121 -58 -16 0 -132 -35 -163 -50 -11 -5 -45 -19 -75 -30
-30 -12 -71 -28 -90 -38 -19 -9 -37 -16 -40 -17 -12 -1 -166 -80 -171 -88 -3
-5 -9 -8 -13 -8 -12 1 -41 -12 -58 -26 -9 -8 -23 -16 -32 -17 -8 -1 -23 -9
-33 -17 -10 -9 -38 -27 -63 -42 -41 -23 -112 -72 -180 -126 -14 -11 -35 -28
-48 -38 -13 -10 -39 -33 -58 -50 -19 -18 -38 -33 -42 -33 -4 0 -27 -19 -52
-43 -25 -23 -61 -54 -80 -68 -54 -41 -240 -226 -240 -238 0 -6 -3 -11 -8 -11
-29 0 -272 -376 -255 -394 4 -3 1 -6 -5 -6 -8 0 -30 -48 -37 -80 -1 -3 -9 -23
-18 -44 -10 -22 -20 -50 -23 -63 -4 -13 -10 -23 -15 -23 -5 0 -6 -6 -3 -14 3
-8 1 -17 -5 -21 -6 -3 -11 -13 -11 -22 0 -15 -12 -28 -113 -121 -26 -23 -48
-45 -49 -48 -2 -3 -36 -39 -76 -81 -82 -84 -211 -243 -265 -325 -75 -116 -180
-316 -180 -345 0 -7 -4 -13 -9 -13 -4 0 -7 -3 -6 -7 1 -5 -3 -19 -9 -33 -10
-21 -21 -51 -28 -70 -1 -3 -4 -12 -7 -20 -7 -17 -38 -137 -43 -166 -2 -10 -4
-19 -5 -19 -1 0 -3 -7 -5 -15 -20 -103 -36 -146 -98 -270 -82 -163 -119 -265
-133 -370 -8 -54 -8 -210 -1 -260 16 -114 36 -198 48 -206 5 -3 9 -16 9 -30 0
-13 5 -24 10 -24 6 0 9 -3 8 -7 -2 -10 21 -66 30 -73 16 -12 62 -117 62 -143
0 -18 5 -27 16 -27 13 0 9 -7 -13 -27 -40 -38 -72 -63 -78 -63 -3 0 -22 -15
-42 -32 -135 -122 -130 -118 -137 -111 -3 4 -6 -1 -6 -10 0 -9 -4 -17 -9 -17
-5 0 -19 -20 -31 -44 -22 -45 -30 -148 -16 -193 4 -12 9 -31 11 -42 3 -12 7
-31 10 -42 18 -84 85 -220 119 -242 40 -26 34 -61 -18 -117 -25 -27 -47 -45
-50 -42 -3 3 -6 -1 -6 -9 0 -8 -12 -28 -28 -44 -30 -34 -35 -42 -86 -130 -31
-55 -66 -152 -72 -200 -1 -11 -5 -31 -9 -45 -18 -72 -27 -218 -14 -226 5 -3 7
-10 3 -15 -9 -15 15 -80 51 -134 57 -87 64 -124 63 -317 0 -156 5 -279 16
-333 5 -26 17 -111 21 -150 4 -35 4 -35 40 -175 15 -58 28 -112 30 -120 2 -8
4 -16 5 -17 2 -2 3 -6 5 -10 1 -5 7 -20 13 -34 6 -15 14 -43 17 -63 4 -20 10
-36 14 -36 4 0 8 -10 9 -22 2 -25 10 -63 12 -63 1 0 3 -13 6 -30 5 -37 12 -70
14 -70 1 0 4 -20 6 -45 2 -25 8 -57 14 -72 6 -18 5 -28 -1 -28 -6 0 -6 -7 1
-19 5 -11 7 -27 4 -35 -3 -9 -1 -16 5 -16 6 0 12 9 12 20 3 47 5 56 16 75 10
16 11 8 5 -40 -9 -79 -8 -492 2 -575 4 -36 10 -85 12 -110 3 -25 7 -61 9 -80
3 -35 10 -118 21 -285 3 -49 8 -93 10 -97 20 -33 20 -681 -1 -809 -2 -13 -6
-51 -10 -84 -3 -33 -8 -67 -10 -75 -2 -8 -6 -37 -10 -65 -3 -27 -8 -59 -10
-70 -3 -11 -7 -45 -10 -75 -3 -30 -7 -66 -10 -80 -3 -14 -8 -57 -10 -97 -2
-40 -6 -77 -9 -82 -3 -5 -5 -20 -5 -32 2 -32 -10 -213 -18 -269 -3 -25 -7 -70
-9 -100 -1 -30 -3 -55 -4 -55 -3 0 -7 -35 -14 -110 -3 -33 -6 -60 -7 -60 -1 0
-6 -32 -13 -95 -2 -25 -6 -45 -7 -45 -2 0 -5 -22 -13 -85 -3 -25 -8 -63 -12
-85 -3 -22 -7 -56 -9 -75 -2 -19 -4 -35 -5 -35 -1 0 -3 -45 -5 -100 -2 -55 -4
-104 -5 -110 -1 -5 -1 -12 0 -15 1 -3 3 -114 4 -247 1 -133 5 -245 9 -249 3
-4 2 -14 -3 -23 -5 -10 -5 -23 0 -31 4 -7 4 -24 -1 -37 -5 -15 -5 -23 2 -23 6
0 7 -6 0 -17 -5 -10 -5 -26 0 -40 5 -13 4 -25 -1 -28 -6 -4 -7 -13 -2 -23 5
-9 6 -28 2 -42 -4 -14 -3 -33 2 -42 6 -12 5 -18 -2 -18 -7 0 -8 -6 -1 -18 5
-10 6 -23 3 -30 -10 -14 -8 -74 2 -90 4 -7 3 -12 -2 -12 -10 0 -9 -30 2 -48 4
-6 3 -12 -1 -12 -5 0 -9 -9 -9 -20 0 -11 5 -20 10 -20 6 0 5 -5 -2 -12 -7 -7
-8 -17 -1 -30 7 -12 6 -18 -1 -18 -6 0 -8 -5 -4 -11 4 -7 9 -37 11 -68 2 -31
6 -63 9 -71 7 -18 17 -94 18 -137 1 -18 3 -33 6 -33 3 0 6 -8 7 -17 4 -54 11
-101 16 -110 3 -5 7 -26 9 -46 1 -21 5 -37 8 -37 3 0 6 -10 7 -22 0 -13 8 -57
17 -98 10 -41 19 -88 22 -105 3 -24 40 -187 71 -315 3 -14 7 -32 9 -40 10 -51
47 -198 54 -215 5 -11 18 -56 29 -100 11 -44 29 -114 40 -155 10 -41 21 -88
23 -105 1 -16 6 -32 10 -35 4 -3 9 -18 12 -33 3 -15 13 -54 22 -85 10 -31 18
-61 20 -67 1 -5 8 -23 15 -40 6 -16 13 -34 15 -40 1 -5 10 -28 20 -50 10 -22
18 -42 19 -45 5 -17 27 -68 35 -82 6 -10 10 -22 10 -28 0 -5 11 -33 24 -62 25
-56 91 -206 109 -248 5 -14 10 -28 9 -33 -1 -4 2 -7 6 -7 4 0 14 -17 21 -37 8
-21 19 -45 26 -53 7 -8 25 -37 41 -65 28 -48 45 -72 72 -100 6 -8 12 -16 12
-19 0 -6 31 -45 58 -72 7 -8 10 -14 5 -14 -4 0 4 -8 20 -18 15 -10 24 -22 20
-25 -3 -4 -1 -7 5 -7 13 0 101 -88 150 -150 20 -25 44 -53 54 -62 9 -10 20
-24 25 -31 4 -7 28 -28 53 -47 25 -19 65 -53 90 -77 25 -23 68 -58 95 -79 28
-21 54 -45 60 -53 25 -42 139 -355 136 -376 0 -3 8 -21 19 -40 11 -20 20 -42
20 -50 0 -7 6 -20 13 -27 6 -7 26 -33 42 -58 27 -41 83 -120 103 -145 4 -5 19
-26 32 -45 31 -44 121 -153 135 -162 12 -9 91 -77 116 -101 11 -9 22 -17 25
-17 4 0 57 -39 101 -75 6 -5 28 -21 48 -35 20 -14 56 -40 80 -58 97 -72 330
-202 361 -202 6 0 15 -5 22 -12 6 -6 19 -13 28 -14 8 -1 35 -12 60 -23 24 -12
46 -21 48 -21 3 0 69 -27 148 -61 79 -34 167 -70 197 -80 63 -22 348 -97 395
-104 17 -2 47 -7 66 -10 19 -3 60 -7 90 -10 30 -2 55 -5 55 -5 0 -4 52 -10
139 -15 54 -3 102 -8 106 -10 5 -3 11 1 13 7 3 7 6 9 6 3 1 -12 110 -13 129
-2 6 5 12 4 12 0 0 -18 383 12 440 33 8 3 31 8 50 10 19 1 46 6 60 9 14 3 36
8 50 11 27 5 239 54 255 58 6 2 24 6 40 10 17 4 84 21 150 38 66 16 125 31
130 33 6 1 17 5 25 8 39 14 136 41 143 39 4 -1 7 3 7 8 0 5 3 9 8 8 10 -3 48
10 102 34 24 11 49 21 55 22 5 1 17 6 25 11 8 5 24 11 35 12 11 2 22 8 23 13
2 6 10 10 17 10 8 0 37 13 65 30 27 16 50 26 50 22 0 -4 4 -2 8 4 4 6 30 25
57 44 28 18 87 64 132 101 l81 68 119 26 c65 15 163 42 218 62 158 55 507 170
540 177 23 5 17 -1 -24 -24 -30 -16 -58 -30 -63 -30 -4 0 -8 -4 -8 -10 0 -5
-7 -10 -15 -10 -8 0 -15 -4 -15 -10 0 -5 -5 -10 -12 -10 -6 0 -26 -11 -44 -25
-18 -14 -37 -25 -43 -25 -6 0 -11 -4 -11 -10 0 -5 -7 -10 -15 -10 -8 0 -15 -4
-15 -10 0 -5 -5 -10 -12 -10 -6 0 -25 -11 -42 -23 -17 -13 -38 -27 -46 -31 -8
-3 1 -3 20 0 19 4 43 7 53 7 9 1 17 5 17 9 0 4 8 8 18 8 10 0 22 3 26 7 6 7
24 11 59 15 9 1 17 7 17 12 0 5 3 6 7 3 3 -4 12 -2 20 5 7 6 16 8 20 5 3 -4
11 -3 17 1 6 5 31 14 56 21 25 8 52 16 60 19 8 3 18 6 23 7 4 2 8 3 10 4 1 2
12 4 24 7 72 13 464 168 471 186 2 4 9 8 15 8 7 0 40 18 75 40 34 22 66 40 71
40 4 0 20 11 35 25 14 13 30 25 34 25 4 0 17 10 30 20 12 11 27 20 32 20 6 0
10 5 10 10 0 6 5 10 10 10 6 0 16 5 23 10 7 6 46 36 87 68 41 31 88 68 105 82
49 42 388 383 415 418 14 18 40 49 57 70 18 20 33 40 33 44 0 4 6 13 13 20 7
7 33 42 59 78 26 36 51 70 55 75 5 6 36 53 69 105 33 52 79 124 102 160 23 36
47 77 53 93 6 15 15 27 20 27 5 0 9 7 9 15 0 8 5 15 10 15 6 0 10 7 10 15 0 8
12 31 26 52 14 21 30 48 35 61 5 12 12 22 17 22 5 0 9 6 9 13 0 7 29 73 65
147 36 74 65 137 65 140 0 3 12 24 26 47 15 24 24 43 20 43 -5 0 -3 4 2 8 14
10 45 71 45 88 0 8 5 14 10 14 6 0 10 8 10 18 0 10 7 28 16 40 8 12 12 22 9
22 -3 0 0 10 7 23 6 12 13 31 15 42 2 11 8 24 13 29 6 6 10 16 10 24 0 8 6 28
14 45 16 35 30 88 28 100 -1 4 3 7 10 7 6 0 9 3 6 6 -4 3 -2 20 4 37 43 142
154 623 173 752 7 48 16 103 22 130 3 11 6 29 8 40 1 11 10 54 18 95 9 41 19
91 22 110 3 19 8 43 11 53 6 19 13 72 18 127 2 19 6 51 10 70 4 20 10 56 12
80 3 25 6 59 8 75 2 17 4 42 5 58 1 37 15 34 18 -5 7 -103 69 -188 176 -243
31 -16 71 -42 88 -57 71 -65 212 -92 312 -60 46 15 137 89 137 111 0 6 5 11
12 11 6 0 8 3 5 7 -4 3 -3 11 2 17 10 12 17 40 28 106 10 65 4 385 -8 385 -1
0 -3 18 -4 40 -2 22 -4 40 -5 40 -2 0 -6 19 -13 63 -10 63 -49 227 -58 245 -5
9 -6 17 -2 17 5 0 8 11 8 25 0 14 -2 25 -5 25 -5 0 -5 48 0 60 6 14 5 37 -2
51 -4 9 -4 19 -1 23 3 3 7 17 9 31 1 13 23 45 48 71 63 64 111 124 108 135 -1
5 2 9 8 9 5 0 10 4 10 9 0 5 15 35 33 68 29 53 47 102 76 203 27 95 29 214 6
323 -20 90 -32 159 -40 217 -4 24 -11 52 -16 62 -5 10 -8 18 -5 18 3 0 -2 16
-9 35 -13 30 -13 41 1 92 9 32 24 92 33 133 10 41 30 109 45 150 15 41 29 82
31 90 2 8 11 42 21 75 9 33 18 67 19 75 1 8 5 23 9 32 4 9 5 21 2 27 -3 5 -2
11 3 13 5 1 12 20 15 40 3 21 10 58 16 83 6 26 8 50 5 55 -3 5 -1 11 4 15 5 3
8 15 6 27 -3 12 0 27 6 35 9 10 8 13 -2 13 -9 0 -10 3 -4 8 6 4 11 16 11 27 0
11 -5 23 -11 27 -7 5 -7 8 0 8 6 0 10 19 8 43 -1 23 -2 42 -3 42 -1 0 -3 14
-5 30 -8 93 -19 153 -31 176 -7 15 -10 29 -7 33 4 3 0 6 -7 6 -7 0 -11 3 -7 6
7 7 -42 82 -77 117 -22 22 -81 64 -81 57 0 -2 -10 2 -23 9 -30 16 -59 23 -98
25 -34 1 -34 7 -2 61 25 43 41 134 50 285 0 8 4 20 8 25 4 6 6 18 5 28 -2 9 0
17 3 17 4 0 7 10 8 23 1 36 11 83 23 104 5 11 8 23 5 25 -2 3 0 17 6 32 5 15
12 39 15 54 3 15 7 38 10 52 2 13 7 42 10 65 3 22 8 48 11 57 6 19 6 21 32
148 11 52 23 124 26 160 6 60 13 96 32 160 18 63 120 186 147 177 17 -5 61 43
80 88 9 22 19 65 21 96 3 31 6 60 7 65 1 5 0 12 -1 17 -6 19 -4 87 2 87 4 0 4
10 -1 23 -8 24 -7 92 3 145 3 17 8 47 11 65 24 155 36 185 79 193 107 19 139
67 140 207 0 89 -5 144 -22 237 -5 31 -4 58 5 86 14 41 14 41 74 48 33 3 71
14 84 23 35 26 65 85 69 137 4 45 -11 127 -25 136 -4 3 -9 19 -12 35 -10 59
-22 106 -43 160 -4 11 -8 22 -9 25 -1 3 -9 23 -19 45 -10 22 -25 58 -33 80 -9
22 -25 52 -35 67 -10 14 -18 30 -18 35 0 5 -13 29 -28 54 -16 25 -27 54 -25
64 2 11 4 39 5 62 1 23 4 41 5 39 7 -7 15 -53 15 -88 0 -28 3 -34 12 -26 11
10 17 34 19 81 1 9 4 17 8 17 4 0 6 11 4 25 -1 14 1 25 6 25 4 0 6 12 5 28 -2
15 -1 31 2 37 7 11 10 43 15 151 2 38 6 75 10 81 4 5 4 13 0 16 -3 4 -7 44 -9
89 -3 83 -5 105 -19 188 -4 25 -9 54 -10 65 -2 11 -4 22 -5 25 -1 3 -2 8 -1
13 0 4 -4 7 -10 7 -5 0 -7 5 -4 10 3 6 3 16 -2 23 -4 6 -8 17 -9 23 -1 5 -12
30 -24 55 -12 24 -23 52 -25 62 -2 9 -14 32 -27 50 -13 17 -21 33 -18 34 6 2
-148 238 -175 267 -23 25 -58 68 -95 116 -14 18 -32 40 -40 49 -51 55 -72 104
-84 201 -5 40 -22 133 -31 170 -3 14 -8 41 -10 60 l-5 35 15 -33 c8 -18 19
-51 25 -74 6 -22 14 -37 18 -34 10 11 8 170 -3 178 -7 5 -7 8 0 8 19 0 -1 251
-29 355 -2 6 -6 24 -10 40 -30 120 -162 388 -198 403 -4 2 -8 9 -8 15 0 7 -15
30 -33 51 -53 66 -160 189 -187 217 -14 15 -41 46 -60 69 -19 24 -41 49 -47
56 -7 7 -13 15 -13 18 0 15 -191 196 -232 220 -27 15 -49 33 -49 39 -1 7 -2
39 -4 72 -5 108 -23 212 -45 260 -18 39 -33 80 -32 88 1 4 -2 7 -7 7 -5 0 -14
14 -21 30 -7 17 -16 30 -21 30 -5 0 -9 6 -9 13 0 7 -14 28 -30 47 -17 19 -34
40 -39 45 -17 21 -101 89 -142 116 -24 16 -48 32 -54 37 -5 4 -93 49 -195 100
-212 106 -294 150 -298 163 -2 5 -7 7 -12 4 -5 -3 -14 1 -22 8 -13 13 -36 21
-100 34 -16 3 -28 10 -28 15 0 7 -5 6 -13 -1 -8 -6 -17 -8 -20 -5 -5 5 -191 9
-207 4 -11 -3 -38 -7 -90 -14 -86 -10 -156 -21 -205 -31 -117 -26 -144 -32
-147 -35 -2 -1 -11 -3 -21 -5 -10 -2 -26 -7 -35 -11 -9 -4 -26 -9 -36 -11 -11
-2 -25 -8 -33 -14 -7 -6 -13 -8 -13 -4 0 4 -7 2 -15 -5 -8 -7 -15 -9 -15 -4 0
5 -4 4 -8 -2 -4 -6 -32 -24 -62 -40 -30 -16 -66 -38 -78 -49 -59 -50 -165
-162 -179 -188 -8 -16 -16 -27 -19 -25 -2 3 -6 29 -9 59 -11 129 -83 446 -122
535 -9 21 -17 41 -18 44 -1 3 -8 21 -16 40 -9 19 -24 58 -33 85 -10 28 -21 57
-24 65 -3 8 -6 18 -7 23 -2 4 -4 9 -5 12 -1 3 -3 8 -4 13 -19 74 -67 179 -88
193 -6 3 -10 10 -10 15 -1 12 -127 179 -175 231 -21 22 -50 54 -64 70 -44 48
-97 92 -103 86 -3 -4 -6 1 -6 10 0 10 -4 17 -9 17 -5 0 -45 24 -88 54 -43 30
-130 81 -193 114 -135 70 -398 172 -413 160 -2 -2 -11 3 -20 11 -9 7 -24 11
-32 7 -8 -3 -15 -2 -15 3 0 7 -54 22 -100 27 -8 0 -23 5 -32 9 -10 4 -24 5
-32 2 -7 -3 -17 -2 -22 3 -5 4 -34 11 -64 15 -30 4 -66 9 -80 11 -14 3 -38 7
-55 9 -16 2 -30 4 -30 5 0 1 -13 3 -30 5 -16 1 -30 3 -30 5 0 2 -52 8 -130 14
-22 2 -40 5 -40 6 0 2 -60 7 -165 12 -30 2 -60 7 -67 11 -6 4 -13 2 -15 -4 -3
-9 -9 -9 -25 -1 -11 6 -23 9 -25 7z m4386 -2224 c-2 -3 -12 3 -22 13 -16 17
-16 18 5 5 12 -7 20 -15 17 -18z m826 -1376 c14 -19 14 -19 -2 -6 -10 7 -18
18 -18 24 0 6 1 8 3 6 1 -2 9 -13 17 -24z"/>
<path d="M17721 7271 c-11 -21 -11 -72 0 -93 12 -23 4 -23 -31 2 -15 11 -30
17 -34 13 -3 -3 -6 -1 -6 5 0 20 -26 2 -27 -19 -1 -12 -9 -26 -17 -32 -24 -18
-56 -90 -45 -103 5 -6 6 -14 2 -17 -3 -4 2 -9 11 -13 10 -4 16 -18 16 -40 0
-27 5 -37 23 -43 12 -5 23 -5 25 0 2 5 9 9 15 9 6 0 19 7 29 16 17 16 19 15
33 -19 8 -20 15 -40 15 -45 0 -5 6 -15 14 -21 11 -9 18 -8 30 5 26 25 57 92
46 99 -5 3 -18 -12 -29 -34 -31 -60 -46 -62 -44 -3 1 6 -3 12 -7 12 -4 0 -10
9 -13 20 -7 26 -31 25 -73 -1 -32 -19 -34 -20 -35 -2 -1 10 -1 22 0 26 10 61
13 87 15 114 1 27 4 32 22 29 27 -5 74 -49 74 -69 0 -19 16 -30 50 -35 14 -2
29 -7 34 -12 5 -5 15 -6 22 -3 11 4 11 9 -1 26 -17 25 -20 41 -5 32 6 -3 10
-2 10 3 0 8 32 46 114 132 40 43 50 67 28 67 -16 0 -72 -54 -72 -70 0 -4 -3
-6 -7 -4 -5 2 -16 -4 -25 -15 -10 -10 -15 -18 -12 -18 3 0 -1 -7 -10 -15 -8
-8 -20 -15 -26 -15 -6 0 -9 -4 -6 -8 3 -5 -5 -17 -16 -27 -32 -27 -43 -3 -42
89 1 42 -3 76 -8 76 -5 0 -7 4 -4 8 3 5 -2 9 -10 9 -8 0 -19 -7 -23 -16z"/>
<path d="M17520 6993 c-14 -7 -22 -13 -17 -13 4 0 0 -12 -10 -27 -9 -14 -18
-31 -19 -37 -1 -6 -4 -23 -7 -38 -3 -16 -1 -28 4 -28 6 0 8 -4 5 -8 -7 -12 26
-11 42 1 7 6 9 14 4 21 -6 6 -4 23 4 41 12 28 12 27 9 -27 -4 -50 -2 -59 17
-72 12 -9 24 -12 28 -8 3 4 13 13 22 20 15 12 20 12 33 -2 9 -9 11 -16 5 -16
-16 0 22 -49 38 -50 22 0 41 26 46 65 4 31 3 35 -10 24 -8 -6 -12 -14 -10 -17
3 -2 1 -13 -5 -24 -11 -20 -33 -20 -35 0 -1 7 -3 14 -4 17 -3 6 -7 22 -9 35
-2 15 -34 12 -57 -5 -10 -8 -22 -15 -25 -15 -5 0 -4 89 1 98 8 12 1 52 -10 64
-13 11 -19 12 -40 1z"/>
<path d="M17399 6809 c-9 -11 -15 -35 -13 -59 2 -32 -1 -40 -15 -40 -10 0 -24
-12 -32 -27 -8 -16 -18 -31 -24 -35 -5 -4 -6 -8 -1 -8 5 0 2 -8 -7 -17 -8 -10
-17 -31 -18 -48 -2 -16 -8 -36 -14 -44 -7 -11 -7 -13 3 -7 8 5 12 1 12 -12 0
-11 9 -22 20 -25 11 -3 18 -1 14 4 -3 5 2 9 10 9 9 0 16 -3 16 -7 0 -5 13 -17
29 -28 16 -10 28 -22 25 -26 -2 -4 6 -11 18 -15 13 -4 26 -11 29 -16 3 -4 15
-10 27 -13 17 -3 22 1 22 16 0 10 -4 19 -9 19 -21 0 -144 140 -125 140 5 0 1
5 -8 10 -15 9 -14 15 10 65 l26 54 22 -57 c13 -37 29 -61 45 -69 13 -7 20 -13
14 -13 -5 0 3 -7 19 -15 47 -25 115 -13 143 24 10 14 13 14 32 -3 12 -11 27
-16 37 -12 15 6 14 9 -7 23 -21 15 -43 37 -66 68 -12 16 -41 78 -48 101 -10
37 -52 38 -46 2 0 -5 -3 -8 -9 -8 -5 0 -10 -7 -10 -15 0 -8 -5 -15 -12 -15 -6
0 -8 -3 -5 -7 4 -3 -2 -17 -14 -29 -18 -20 -19 -25 -8 -41 8 -10 21 -19 30
-21 15 -2 19 5 34 61 2 4 4 10 5 15 1 4 2 11 1 16 -1 5 5 4 13 -4 9 -7 16 -19
16 -27 0 -8 10 -24 23 -36 12 -12 24 -29 25 -37 2 -8 0 -12 -4 -8 -4 4 -12 1
-18 -8 -28 -38 -125 -13 -127 33 0 5 -7 15 -14 23 -8 9 -15 30 -17 48 -1 18
-6 32 -10 32 -5 0 -4 9 2 20 8 15 8 20 -1 20 -8 0 -9 3 0 13 8 11 7 19 -7 35
-17 20 -18 20 -33 1z"/>
<path d="M17270 6472 c0 -5 23 -28 51 -53 65 -56 89 -80 89 -92 0 -5 -8 -6
-17 -2 -10 4 -26 8 -37 10 -10 3 -24 9 -30 15 -7 5 -16 7 -19 3 -4 -3 -9 2
-13 11 -3 9 -10 14 -14 11 -4 -3 -24 2 -43 10 -31 13 -36 13 -41 0 -3 -8 -1
-15 4 -15 6 0 10 -7 10 -15 0 -8 5 -15 10 -15 6 0 10 -5 10 -11 0 -7 15 -30
33 -53 47 -58 50 -65 37 -81 -7 -8 -9 -15 -5 -15 5 0 -2 -9 -15 -20 -26 -23
-40 -18 -35 10 2 11 -1 20 -6 20 -6 0 -8 8 -5 18 3 9 1 24 -4 32 -9 13 -12 12
-25 -4 -8 -11 -15 -16 -15 -10 0 5 -4 2 -9 -5 -6 -10 -8 4 -6 40 2 29 4 56 5
59 5 13 -3 77 -11 93 -12 21 -42 9 -61 -26 -15 -29 -19 -128 -5 -145 8 -11 7
-13 -4 -12 -37 6 -51 -2 -65 -36 -17 -40 -14 -76 10 -122 9 -18 13 -32 8 -32
-21 0 5 -79 35 -105 14 -13 -15 -85 -35 -85 -14 0 -19 11 -26 57 -6 47 -16 60
-31 40 -9 -13 -11 -2 -10 53 2 53 -1 70 -13 75 -27 10 -42 -15 -42 -71 0 -30
4 -54 8 -54 4 0 9 -12 10 -27 2 -28 32 -69 32 -45 0 25 28 11 33 -17 4 -18 14
-30 28 -34 28 -7 43 4 60 46 7 18 22 39 32 47 15 12 16 20 8 42 -5 14 -15 29
-20 33 -18 10 -13 38 5 31 11 -4 29 8 54 36 22 23 38 46 37 51 -1 5 4 12 11
14 6 3 12 0 12 -6 0 -6 4 -11 8 -11 14 0 58 43 66 64 4 13 10 15 19 8 16 -13
47 -11 48 2 0 6 2 19 4 28 2 10 -6 18 -21 22 -13 4 -24 13 -24 21 0 8 -5 15
-11 15 -6 0 -17 7 -25 15 -9 8 -12 15 -9 15 4 0 -3 9 -16 20 l-24 20 29 -5
c16 -2 34 -9 40 -15 5 -5 20 -10 32 -10 13 0 25 -4 28 -8 9 -15 61 -7 61 9 0
17 -10 30 -48 67 -16 15 -47 44 -68 65 -38 36 -59 46 -59 29z m-123 -154 c-3
-7 -5 -2 -5 12 0 14 2 19 5 13 2 -7 2 -19 0 -25z m-7 -102 c-6 -9 -6 -16 2
-24 9 -9 9 -12 0 -12 -6 0 -9 -7 -6 -15 4 -8 11 -15 16 -15 13 0 48 39 48 54
0 6 3 6 9 1 17 -18 16 -60 -2 -80 -10 -11 -29 -33 -41 -48 -38 -47 -54 -29
-58 64 -3 81 3 102 28 92 10 -4 11 -9 4 -17z m-61 -21 c5 2 8 -24 8 -59 0 -35
4 -69 8 -77 7 -11 6 -12 -6 -2 -23 19 -41 89 -33 126 4 18 9 26 11 19 3 -6 8
-10 12 -7z"/>
<path d="M16873 5910 c-1 -11 2 -20 6 -20 4 0 13 -16 21 -35 8 -19 17 -35 22
-35 4 0 8 -7 8 -15 0 -8 4 -15 10 -15 5 0 7 -7 4 -14 -4 -11 -13 -7 -38 17
-18 18 -35 40 -39 50 -7 18 -23 19 -43 2 -20 -17 13 -62 83 -112 48 -34 79
-39 93 -14 7 14 7 21 0 21 -5 0 -10 9 -10 19 0 11 -4 21 -8 23 -5 2 -28 36
-51 76 -44 75 -56 86 -58 52z"/>
<path d="M16702 5816 c-11 -25 -12 -145 0 -147 4 -1 14 -2 21 -3 6 -1 11 -11
11 -24 -2 -39 37 -19 44 23 5 28 7 28 23 -3 25 -49 51 -50 67 -3 13 37 -3 66
-16 31 -5 -14 -8 -28 -5 -32 2 -5 0 -8 -5 -8 -6 0 -17 18 -26 40 -11 27 -22
40 -35 40 -23 0 -30 16 -25 58 5 45 -36 68 -54 28z"/>
<path d="M16595 5730 c-9 -10 -15 -26 -12 -35 4 -8 3 -15 -2 -15 -10 0 -12
-19 -10 -90 2 -103 4 -130 12 -130 4 0 7 -7 7 -15 0 -8 4 -15 9 -15 5 0 11 -9
14 -20 7 -26 43 -26 50 0 3 12 -5 35 -20 57 -35 52 -53 108 -47 146 2 18 5 44
6 60 3 47 16 15 21 -48 5 -63 31 -121 58 -130 9 -3 27 -1 40 4 13 5 20 10 14
11 -6 0 -5 3 1 8 16 10 28 52 14 52 -6 0 -14 -8 -17 -17 -13 -35 -29 -43 -52
-27 -12 9 -19 20 -16 25 4 5 2 9 -4 9 -5 0 -10 15 -11 33 0 17 -1 40 -1 50 0
11 -5 15 -12 10 -9 -5 -8 -2 0 9 7 8 9 18 5 22 -4 4 -8 16 -8 27 -3 35 -4 39
-12 39 -5 0 -17 -9 -27 -20z"/>
<path d="M16361 5650 c-13 -11 -20 -20 -16 -20 4 0 2 -7 -5 -15 -18 -22 -21
-145 -3 -145 7 0 13 5 13 10 0 6 -4 10 -9 10 -5 0 -5 16 -1 37 5 20 8 39 8 42
-3 37 23 73 56 76 19 3 28 -3 38 -26 7 -16 16 -29 19 -29 3 0 6 -6 6 -12 1 -7
4 -30 8 -52 6 -33 5 -37 -8 -25 -8 8 -14 18 -14 23 1 5 -10 10 -25 11 -18 1
-28 -4 -31 -17 -3 -10 -2 -18 1 -18 4 0 8 -23 8 -51 2 -57 20 -108 37 -105 24
3 36 17 32 36 -2 11 3 26 11 34 8 8 14 34 15 58 0 66 -2 77 -12 83 -5 4 -7 11
-3 17 10 15 -27 75 -53 87 -33 15 -44 13 -72 -9z"/>
<path d="M16324 5451 c4 -6 9 -19 11 -28 10 -55 49 -150 66 -165 11 -9 19 -19
17 -22 -7 -12 61 -74 97 -88 40 -15 92 -14 109 2 14 13 -1 25 -16 14 -21 -16
-68 -17 -68 -2 0 10 -3 9 -10 -2 -7 -11 -10 -11 -10 -2 0 7 -4 11 -9 7 -6 -3
-14 3 -20 12 -6 10 -11 15 -11 11 0 -14 -39 31 -59 67 -10 19 -21 32 -25 28
-3 -3 -6 3 -6 15 0 12 -4 22 -8 22 -5 0 -9 6 -9 13 -2 44 -28 120 -42 125 -8
3 -11 0 -7 -7z"/>
</g>
</svg>
